<?xml version="1.0" standalone="no"?>
<!DOCTYPE svg PUBLIC "-//W3C//DTD SVG 1.1//EN" "http://www.w3.org/Graphics/SVG/1.1/DTD/svg11.dtd">
<svg xmlns="http://www.w3.org/2000/svg">
<metadata>Team DIMIGOIN</metadata>
<defs>
<font id="dimigoincon" horiz-adv-x="1000" >
<font-face font-family="dimigoincon" font-weight="400" font-stretch="normal" units-per-em="1000" ascent="850" descent="-150" />
<missing-glyph horiz-adv-x="1000" />
<glyph glyph-name="arrow-slim-left" unicode="&#xe800;" d="M457 833l21-18a75 75 0 0 0 10-106l-272-327a51 51 0 0 1 0-64l272-327a75 75 0 0 0-10-107l-21-17a75 75 0 0 0-106 10l-319 384a141 141 0 0 0 0 179l319 383a75 75 0 0 0 106 10z" horiz-adv-x="505" />

<glyph glyph-name="arrow-slim-right" unicode="&#xe801;" d="M48-133l-21 18a75 75 0 0 0-9 106l271 327a51 51 0 0 1 0 64l-271 327a75 75 0 0 0 9 107l21 17a75 75 0 0 0 106-10l319-383a141 141 0 0 0 0-179l-319-384a75 75 0 0 0-106-10z" horiz-adv-x="505" />

<glyph glyph-name="arrow-up" unicode="&#xe802;" d="M403 691l-375-445a125 125 0 0 1 96-204h750a125 125 0 0 1 95 204l-375 445a127 127 0 0 1-191 0z" horiz-adv-x="1000" />

<glyph glyph-name="email" unicode="&#xe803;" d="M998 557a175 175 0 0 1-175 175h-647a175 175 0 0 1-175-175v-421a175 175 0 0 1 175-176h647a175 175 0 0 1 175 176z m-254 50l-244-179-244 179z m79-521h-647a50 50 0 0 0-50 50v411l317-232a97 97 0 0 1 115 0l315 232v-411a50 50 0 0 0-50-50z" horiz-adv-x="1000" />

<glyph glyph-name="ball" unicode="&#xe804;" d="M351 654l1 2a290 290 0 0 1 17 27 1100 1100 0 0 1-153 67l-10 4a501 501 0 0 1-175-233c97 12 261 46 320 133z m51 106a379 379 0 0 1 15 83 500 500 0 0 1-118-35c34-15 69-30 103-48z m99 89a467 467 0 0 0-25-131 1152 1152 0 0 0 100-70l19-15a858 858 0 0 0 214 109 498 498 0 0 1-308 108z m-213-585a1024 1024 0 0 0 240 316l-2 2c-27 21-55 40-85 59a351 351 0 0 0-21-34c-83-121-292-160-408-173l-5 0a498 498 0 0 1 172-467 1415 1415 0 0 0 109 297z m259-410c0 65 3 127 7 184 16 203 58 336 125 395a875 875 0 0 1-88 94 941 941 0 0 1-228-299 1344 1344 0 0 1-109-308l-1-5a498 498 0 0 1 247-65c16 0 31 1 47 2z m323 822a769 769 0 0 1-211-99 946 946 0 0 0 95-106 295 295 0 0 0 83 12 353 353 0 0 0 153-37 498 498 0 0 1-113 232z m-22-670a777 777 0 0 1-120 360c-59-60-96-247-99-498a501 501 0 0 1 220 125z m143 344a290 290 0 0 1-154 49 233 233 0 0 1-32-2 859 859 0 0 0 117-314 497 497 0 0 1 78 262z" horiz-adv-x="1000" />

<glyph glyph-name="menu" unicode="&#xe805;" d="M1000 352v-4a101 101 0 0 0-100-100h-800a101 101 0 0 0-100 100v4a101 101 0 0 0 100 100h802a99 99 0 0 0 98-100z m0 343v-4a101 101 0 0 0-100-100h-800a101 101 0 0 0-100 100v4a101 101 0 0 0 100 100h802a99 99 0 0 0 98-100z m0-685v-5a101 101 0 0 0-100-100h-800a101 101 0 0 0-100 100v5a101 101 0 0 0 100 100h802a99 99 0 0 0 98-100z" horiz-adv-x="1000" />

<glyph glyph-name="bamboo" unicode="&#xe806;" d="M227 538h233l-14 113a334 334 0 0 0 0 85l14 114h-259l16-110a346 346 0 0 0 0-92l-5-36-73 42a38 38 0 0 1-38-67l31-17-31-18a38 38 0 0 1-14-52 39 39 0 0 1 22-18 36 36 0 0 1 10-1 38 38 0 0 1 19 5l86 49c1 1 2 3 3 3z m69 192l-4 26h78l-3-29a269 269 0 0 1 0-67l3-29h-78l4 27a271 271 0 0 1 0 72z m164-567h-259l16-111a346 346 0 0 0 0-92l-16-110h259l-14 114a334 334 0 0 0 0 85z m-94-190l4-29h-78l4 26a271 271 0 0 1 0 73l-4 26h78l-3-29a269 269 0 0 1-1-67z m539 140l-30 18 31 18a38 38 0 0 1-38 66l-87-49a26 26 0 0 1-4-3h-193l16-111a346 346 0 0 0 0-92l-16-110h260l-16 114a334 334 0 0 0 0 85l3 19 35-21a38 38 0 0 1 19-5 38 38 0 0 1 19 72z m-156-140l4-29h-78l3 26a271 271 0 0 1 0 73l-3 26h78l-3-29a269 269 0 0 1 0-67z m-199 316l-32 18 32 18a38 38 0 1 1-39 66l-68-39a352 352 0 0 0 3 40l14 114h-259l16-110a346 346 0 0 0 0-92l-16-110h259l-8 63 59-34a39 39 0 0 1 20-5 38 38 0 0 1 33 19 38 38 0 0 1-14 52z m-184 27l4-28h-78l4 26a271 271 0 0 1 0 73l-4 26h78l-3-30a269 269 0 0 1-1-67z" horiz-adv-x="1000" />

<glyph glyph-name="facebook" unicode="&#xe807;" d="M498 850a498 498 0 1 1 499-498 498 498 0 0 1-499 498z m154-494h-94v-350h-144v347h-78v121h76v101c0 95 73 122 138 122h111v-119h-64c-3 0-42 2-42-35v-69h106z" horiz-adv-x="1000" />

<glyph glyph-name="clip" unicode="&#xe808;" d="M605 689l-160-160-16-16-183-183a146 146 0 0 1-10-198 143 143 0 0 1 209-7l172 172a43 43 0 0 1 0 61h0a43 43 0 0 1-61 0l-171-172a58 58 0 0 0-72-8 57 57 0 0 0-9 88l203 203h0l160 160a144 144 0 0 0 195 10 141 141 0 0 0 7-206l-193-193-180-180-60-60a208 208 0 0 0-278-18 204 204 0 0 0-14 302l492 493a43 43 0 0 1 0 60h0a43 43 0 0 1-61 0l-487-486c-115-115-119-307-2-420a291 291 0 0 1 407 4l64 64 179 179 194 195a227 227 0 0 1-8 328 231 231 0 0 1-317-12z" horiz-adv-x="996" />

<glyph glyph-name="club-administration" unicode="&#xe809;" d="M771 506a31 31 0 1 0-31-31 31 31 0 0 0 31 31m0 94a125 125 0 1 1 125-125 125 125 0 0 1-125 125z m-422-37a47 47 0 1 0-47-47 47 47 0 0 0 47 47m0 93a141 141 0 1 1 141-140 141 141 0 0 1-141 140z m0-433c116 0 219-119 249-279h-498c30 160 133 279 249 279m0 94c-181 0-330-182-349-416a47 47 0 0 1 47-51h603a47 47 0 0 1 47 51c-19 235-168 416-348 416z m302 0a274 274 0 0 1-87-15c107-83 182-226 195-395a109 109 0 0 0-10-57h204a47 47 0 0 1 47 51c-19 234-168 416-349 416z" horiz-adv-x="1000" />

<glyph glyph-name="club" unicode="&#xe80a;" d="M771 350a125 125 0 1 0 125 125 125 125 0 0 0-125-125z m-281 166a141 141 0 1 1-141-141 141 141 0 0 1 140 141z m-141-199c-181 0-330-182-349-416a47 47 0 0 1 47-51h603a47 47 0 0 1 47 51c-19 234-168 416-348 416z m303 0a274 274 0 0 1-87-15c106-83 181-226 195-395a109 109 0 0 0-11-57h204a47 47 0 0 1 47 51c-19 234-168 416-349 416z" horiz-adv-x="1000" />

<glyph glyph-name="comment" unicode="&#xe80b;" d="M1051 850h-927a124 124 0 0 1-124-124v-567a124 124 0 0 1 124-124h711c-23-68-54-163-55-167s-6-16 5-18 10 4 18 5 122 106 204 180h45a124 124 0 0 1 123 124v567a124 124 0 0 1-124 124z m-368-618h-420a59 59 0 0 0 0 118h420a59 59 0 1 0 0-118z m288 339a59 59 0 0 0-59-59h-649a59 59 0 0 0-59 59h0a59 59 0 0 0 59 59h649a59 59 0 0 0 59-59z" horiz-adv-x="1175" />

<glyph glyph-name="cross" unicode="&#xe80c;" d="M688 350l273 275a132 132 0 0 1-187 187l-274-274-274 273a133 133 0 0 1-188 0h0a133 133 0 0 1 0-187l275-274-274-274a133 133 0 0 1 0-188h0a133 133 0 0 1 187 0l274 275 275-274a132 132 0 0 1 187 187z" horiz-adv-x="1000" />

<glyph glyph-name="delete" unicode="&#xe80d;" d="M871 703h0c0-12-16-23-36-23h-653c-19 0-35 11-35 23h0a193 193 0 0 0 34 22h0c62 34 168 58 290 63v34a29 29 0 0 0 31 28h14a30 30 0 0 0 31-28v-34c122-5 227-28 290-63h0a186 186 0 0 0 34-22z m-30-134l-111-667c0-29-74-52-223-52s-223 23-223 52l-111 667a78 78 0 0 0 78 77h510a78 78 0 0 0 80-77z m-413-604l-80 590a23 23 0 0 1-26 22l-25-5a26 26 0 0 1-19-29l79-590a24 24 0 0 1 26-21l25 4a25 25 0 0 1 20 29z m122 590a21 21 0 0 1-21 21h-37a21 21 0 0 1-21-21v-602a21 21 0 0 1 21-21h37a21 21 0 0 1 21 21z m167 17l-26 5a23 23 0 0 1-26-22l-79-590a25 25 0 0 1 19-29l26-4a23 23 0 0 1 25 21l80 590a25 25 0 0 1-19 29z" horiz-adv-x="1000" />

<glyph glyph-name="detail" unicode="&#xe80e;" d="M646 720a130 130 0 1 0-130 130 130 130 0 0 0 130-130z m-130-240a130 130 0 1 1 130-130 130 130 0 0 1-130 130z m0-370a130 130 0 1 1 130-130 130 130 0 0 1-130 130z" horiz-adv-x="1000" />

<glyph glyph-name="dets-filled" unicode="&#xe80f;" d="M1000 158a13 13 0 0 0-12-12l-479-116a36 36 0 0 0-18 0l-478 124a13 13 0 0 0-13 13l122 248a36 36 0 0 0 24 20l2 0a35 35 0 0 0 17-1l253-75c10-41 21-79 30-79h104c9 0 21 39 31 80l234 73c7 0 24-2 24-9z m-489 181l72 22c7 29 13 59 16 78a141 141 0 1 1-198 0c3-19 10-49 17-79l72-21a37 37 0 0 1 21 0z" horiz-adv-x="1000" />

<glyph glyph-name="dets-outlined" unicode="&#xe810;" d="M1029 373c-12 29-43 53-93 53h-11l-150-44c6 26 11 52 15 71a243 243 0 1 1-376 0c4-20 10-47 16-73l-160 45a112 112 0 0 1-56 2l-2 0a112 112 0 0 1-76-61l-136-279v-17a88 88 0 0 1 75-87l499-129a113 113 0 0 1 29-4 105 105 0 0 1 27 3l499 121a88 88 0 0 1 75 87v21z m-427 327a94 94 0 0 0 66-159l-16-16-5-23c-3-19-10-55-18-90-4-17-8-29-11-39h-32c-2 9-6 22-10 37-8 35-16 72-19 91l-5 23-16 16a94 94 0 0 0 66 160z m0-699l-424 110 79 161 313-87a121 121 0 0 1 65 0l283 82 100-165z" horiz-adv-x="1204" />

<glyph glyph-name="dimigo" unicode="&#xe811;" d="M898 272a402 402 0 1 0-77 324l-71-131a272 272 0 1 1-7-244h0l140 260 60 109a508 508 0 0 1-72 99 500 500 0 1 1 125-429z m-394-78a156 156 0 1 0 156 156 155 155 0 0 0-156-156" horiz-adv-x="1000" />

<glyph glyph-name="dimiru" unicode="&#xe812;" d="M67 521a19 19 0 0 1-11-1c0 12 0 24 0 36a19 19 0 0 1-38 0l2-225-4 0c-22-5-16-36 4-37 0-21 0-43 1-64a19 19 0 0 1 38 0c0 24 0 47 0 71 58 15 124 40 139 104 17 74-76 104-131 116z m76-137a167 167 0 0 0-85-44q-1 73-2 144h0c46-9 142-40 87-100z m108 50a19 19 0 0 1 19 19c0 1 0 3 0 5v0a6 6 0 0 1 0 1 6 6 0 0 1 0 2 31 31 0 0 0 3 5 19 19 0 0 1-33 19 54 54 0 0 1-9-33 19 19 0 0 1 20-18z m3-133c3 26 7 53 10 80 3 24-35 24-38 0-3-27-7-54-10-80-3-25 35-24 38 0z m67-32a313 313 0 0 0 23 65c3-20 7-40 9-60a19 19 0 0 1 35-10c14 20 28 39 43 58a144 144 0 0 0 4-24c1-24 39-24 38 0a178 178 0 0 1-20 71 19 19 0 0 1-30 4q-20-24-39-49c-3 21-7 42-12 62a19 19 0 0 1-32 9l-4-5a21 21 0 0 1-34-13 738 738 0 0 0-17-98 19 19 0 0 1 36-10z m181 180a19 19 0 0 1 0 38 19 19 0 0 1 0-39z m-6-74a676 676 0 0 0-12-76c-5-23 32-34 37-10a744 744 0 0 1 13 86c2 24-36 24-38 0z m98-88c9 37 18 75 43 105 16 18-11 45-27 26a191 191 0 0 1-26-39c0 6-1 12-2 19-3 24-41 24-38 0l12-106c2-20 32-28 38-5z m101-10c20-6 44 8 60 19l0 0c7-23 19-41 45-25a19 19 0 0 1-9 36 28 28 0 0 1-1 4l-2 13-3 28a19 19 0 0 1-38 0c-1-16-22-41-40-36s-8 40-3 53c9 22-23 41-33 19-13-32-21-98 24-111z m206 43a910 910 0 0 0 95 192c13 21-20 40-33 19a947 947 0 0 1-99-201c-8-23 28-33 36-10z m-38-84a19 19 0 0 1 0 38 19 19 0 0 1 0-38z" horiz-adv-x="1000" />

<glyph glyph-name="edison" unicode="&#xe813;" d="M505 749a338 338 0 0 1-237 101 268 268 0 0 1-192-78c-111-112-99-304 27-429s673-264 673-264-145 546-271 670z m-340-65a143 143 0 0 0 103 41 214 214 0 0 0 149-64c45-45 114-215 174-399-184 58-355 125-400 170-77 76-89 189-26 252z m745-654h-3a90 90 0 0 1 3-180h3a90 90 0 0 1-3 180z" horiz-adv-x="1000" />

<glyph glyph-name="edit" unicode="&#xe814;" d="M883 506l48 49h0l-656-657a131 131 0 0 0-75-37c-5 0-10-1-16-1l-86-2-55-1a29 29 0 0 0-30 30l1 55 2 87a129 129 0 0 0 1 15 132 132 0 0 0 37 75l656 656h0l-48-48z m92 207l-106 107a81 81 0 0 1-114 0l-44-44 220-221 44 45a80 80 0 0 1 0 113z" horiz-adv-x="1000" />

<glyph glyph-name="editor" unicode="&#xe815;" d="M892 714l-6-3a275 275 0 0 0-372 123 46 46 0 0 1-70 0 275 275 0 0 0-371-123l-6 3a46 46 0 0 1-67-46l58-484a97 97 0 0 1 38-66l325-248a97 97 0 0 1 117 0l325 248a96 96 0 0 1 37 66l58 484a46 46 0 0 1-66 46z m-141-202l-301-427a53 53 0 0 0-81-6l-157 168a50 50 0 0 0 73 69l117-126 267 379a50 50 0 1 0 82-57z" horiz-adv-x="959" />

<glyph glyph-name="hourglass" unicode="&#xe816;" d="M634 688l12 37h44a47 47 0 0 1 47 47v31a47 47 0 0 1-47 47h-643a47 47 0 0 1-47-47v-31a47 47 0 0 1 47-47h45l13-41a750 750 0 0 1 158-275l55-60-57-64a746 746 0 0 1-158-276l-11-34h-45a47 47 0 0 1-47-47v-31a47 47 0 0 1 47-47h643a47 47 0 0 1 47 47v31a47 47 0 0 1-47 47h-45l-13 38a746 746 0 0 1-158 275l-55 60 58 65a745 745 0 0 1 157 275z m-95-691c-41 53-114 109-171 170-51-61-130-120-172-175a653 653 0 0 0 134 230l39 43 35-40a653 653 0 0 0 135-228z m-133 478l-38-43-36 40a652 652 0 0 0-138 241l-4 12h357l-3-8a653 653 0 0 0-138-242z" horiz-adv-x="737" />

<glyph glyph-name="internet-class" unicode="&#xe817;" d="M0 135v422a175 175 0 0 0 175 175h651a175 175 0 0 0 174-175v-422a175 175 0 0 0-174-174h-651a175 175 0 0 0-175 174z m875 422a50 50 0 0 1-49 50h-651a50 50 0 0 1-50-50v-422a50 50 0 0 1 49-49h652a50 50 0 0 1 49 49z m-203-166l-223 128a47 47 0 0 1-70-41v-256a47 47 0 0 1 70-41l223 128a47 47 0 0 1 0 82z" horiz-adv-x="1000" />

<glyph glyph-name="list" unicode="&#xe818;" d="M1000 681v-5a100 100 0 0 0-99-99h-520a100 100 0 0 0-100 99v5a100 100 0 0 0 100 99h520a100 100 0 0 0 99-99z m-896 99h-4a100 100 0 0 1-100-99v-5a100 100 0 0 1 100-99h4a100 100 0 0 1 99 99v5a100 100 0 0 1-99 99z m797-328h-520a100 100 0 0 1-100-100v-4a100 100 0 0 1 100-100h520a100 100 0 0 1 99 100v4a100 100 0 0 1-99 100z m-797 0h-4a100 100 0 0 1-100-100v-4a100 100 0 0 1 100-100h4a100 100 0 0 1 99 100v4a100 100 0 0 1-99 100z m797-328h-520a100 100 0 0 1-100-100v-4a100 100 0 0 1 100-100h520a100 100 0 0 1 99 100v4a100 100 0 0 1-99 99z m-797 0h-4a100 100 0 0 1-100-100v-4a100 100 0 0 1 100-100h4a100 100 0 0 1 99 100v4a100 100 0 0 1-99 99z" horiz-adv-x="1000" />

<glyph glyph-name="logout" unicode="&#xe819;" d="M500 296h0a94 94 0 0 0-94 94v366a94 94 0 0 0 94 94h0a94 94 0 0 0 94-94v-365a94 94 0 0 0-94-95z m141 232v-2a94 94 0 0 1 27-67 234 234 0 0 0 66-173c-4-115-108-220-223-225a234 234 0 0 0-181 397 102 102 0 0 1 29 70h0c0 90-109 138-173 73a438 438 0 1 1 629-1 102 102 0 0 1-174-72z" horiz-adv-x="1000" />

<glyph glyph-name="minus" unicode="&#xe81a;" d="M1000 350v-4a100 100 0 0 0-99-100h-804a100 100 0 0 0-100 101v3a100 100 0 0 0 100 100h804a100 100 0 0 0 99-100z" horiz-adv-x="1000" />

<glyph glyph-name="moon" unicode="&#xe81b;" d="M768 170a375 375 0 0 0-244 625 33 33 0 0 1-23 55 516 516 0 0 1-77-6 500 500 0 1 1 529-704 33 33 0 0 1-39 46 378 378 0 0 0-146-16z" horiz-adv-x="957" />

<glyph glyph-name="muffin" unicode="&#xe81c;" d="M813 350h-620a47 47 0 0 1-45-61l116-356a47 47 0 0 1 44-32h389a47 47 0 0 1 44 32l116 356a47 47 0 0 1-44 61z m-400-333l-18-3a31 31 0 0 0-36 24l-34 174a31 31 0 0 0 24 36l18 3a31 31 0 0 0 36-24l35-174a31 31 0 0 0-25-36z m262 195l-34-174a31 31 0 0 0-36-25l-18 4a31 31 0 0 0-24 36l34 174a31 31 0 0 0 36 24l18-3a31 31 0 0 0 24-36z m325 293v-4a100 100 0 0 0-99-100h-804a100 100 0 0 0-100 100v4a100 100 0 0 0 100 100h78c47 112 176 194 328 194s281-82 328-194h70a100 100 0 0 0 99-100z" horiz-adv-x="1000" />

<glyph glyph-name="notice" unicode="&#xe81d;" d="M272 2v696a39 39 0 0 0 59 34l459-265 151 87a39 39 0 0 0 59-34v-340a39 39 0 0 0-59-34l-151 87-459-266a39 39 0 0 0-59 35z m-58 348a31 31 0 0 1-32 31h-113a31 31 0 0 1-31-31 31 31 0 0 1 31-31h113a31 31 0 0 1 32 31z m-8 182a31 31 0 0 1-16 41l-104 44a31 31 0 0 1-41-15 31 31 0 0 1 16-41l104-45a31 31 0 0 1 41 16z m-120-449l104 44a31 31 0 0 1 16 41 31 31 0 0 1-40 16l-105-44a31 31 0 0 1-15-41 31 31 0 0 1 40-16z" horiz-adv-x="1000" />

<glyph glyph-name="ok" unicode="&#xe81e;" d="M1177 817a147 147 0 0 1-206-21l-483-591-243 218a147 147 0 0 1-196-218l353-318a143 143 0 0 1 90-37l14 0h0a146 146 0 0 1 116 53l577 707h0a147 147 0 0 1-22 207z" horiz-adv-x="1231" />

<glyph glyph-name="plus" unicode="&#xe81f;" d="M901 451h-300v300a100 100 0 0 1-99 99h-3a100 100 0 0 1-100-99v-300h-300a100 100 0 0 1-99-100v-4a100 100 0 0 1 99-99h300v-299a100 100 0 0 1 100-99h4a100 100 0 0 1 99 99v300h299a100 100 0 0 1 99 99v3a100 100 0 0 1-99 100z" horiz-adv-x="1000" />

<glyph glyph-name="profile" unicode="&#xe820;" d="M1000 376a496 496 0 0 1-16 99 479 479 0 0 1-14 47 500 500 0 0 1-69 127c-5 7-10 13-16 19a492 492 0 0 1-106 97 461 461 0 0 1-41 25c-14 7-29 14-44 21a503 503 0 0 1-389 0c-15-7-30-14-44-21a461 461 0 0 1-41-25 492 492 0 0 1-106-97c-6-6-11-12-15-19a500 500 0 0 1-69-127 479 479 0 0 1-14-47 496 496 0 0 1-16-99c0-9 0-17 0-26a500 500 0 0 1 1000 0c0 9 0 17 0 26z m-213-302a399 399 0 0 0-146-97 538 538 0 0 0-282 0 399 399 0 0 0-146 97 48 48 0 0 0-14 29 80 80 0 0 0 6 38 320 320 0 0 0 590 0 78 78 0 0 0 6-32 51 51 0 0 0-14-35z m-145 434a142 142 0 1 0-142 143 142 142 0 0 0 142-143z" horiz-adv-x="1000" />

<glyph glyph-name="request-filled" unicode="&#xe821;" d="M613 850h-484a129 129 0 0 1-129-129v-742a129 129 0 0 1 129-129h484a129 129 0 0 1 129 129v742a129 129 0 0 1-129 129z m16-373l-274-335a46 46 0 0 0-36-17h-4a45 45 0 0 0-29 12l-168 151a46 46 0 1 0 61 68l134-121 245 300a46 46 0 1 0 70-58z" horiz-adv-x="742" />

<glyph glyph-name="request-outlined" unicode="&#xe822;" d="M716-148h-422a175 175 0 0 0-175 174v648a175 175 0 0 0 175 174h422a175 175 0 0 0 175-174v-648a175 175 0 0 0-175-174z m-422 871a50 50 0 0 1-49-49v-648a50 50 0 0 1 49-49h422a50 50 0 0 1 50 49v648a50 50 0 0 1-50 49z m385-240a46 46 0 0 1-64-6l-149-183-75 68a46 46 0 0 1-61-68l109-99a45 45 0 0 1 28-11h5a45 45 0 0 1 35 17l179 218a46 46 0 0 1-7 64z" horiz-adv-x="1000" />

<glyph glyph-name="research" unicode="&#xe823;" d="M927 539l30 31h0l-414-414a84 84 0 0 0-47-23q-5 0-10-1l-54-1-35 0a18 18 0 0 0-19 18l0 35 1 55q0 4 1 9a84 84 0 0 0 24 47l414 414h0l-31-31z m58 131l-67 67a51 51 0 0 1-72 0l-28-28 139-139 28 28a51 51 0 0 1 0 72z m-259-398v-110a133 133 0 0 0-133-133h-209a133 133 0 0 0-133 133v209a133 133 0 0 0 133 132h163l102 103a238 238 0 0 1-56 7h-209a242 242 0 0 1-242-242v-209a242 242 0 0 1 242-243h209a242 242 0 0 1 242 243v209c0 3 0 7 0 10z" horiz-adv-x="1000" />

<glyph glyph-name="school-meal" unicode="&#xe824;" d="M479 566s0 0 0-1 0-2 0-3c0-65-56-119-131-135l16-528a47 47 0 0 0-43-49h-33a47 47 0 0 0-43 49l16 528c-75 16-131 70-131 135v252a36 36 0 0 0 47 34 37 37 0 0 0 24-35v-170a40 40 0 0 1 39-41h3a26 26 0 0 1 26 27v185a35 35 0 1 0 71 0v-197a15 15 0 0 1 14-15 55 55 0 0 1 54 56v155a37 37 0 0 0 24 35 36 36 0 0 0 47-34z m315-325l-10 525s7 101-43 82h0c-88-48-150-162-150-294 0-104 39-197 99-255l-8-375c0-41 19-74 43-74h33c23 0 43 33 43 74z" horiz-adv-x="1000" />

<glyph glyph-name="search" unicode="&#xe825;" d="M911-12l-258 262a366 366 0 1 1-123-97l272-272a77 77 0 0 1 109 107z m-821 491a282 282 0 1 0 281-282 282 282 0 0 0-281 282z" horiz-adv-x="941" />

<glyph glyph-name="setting" unicode="&#xe826;" d="M1013 396l-12 70a52 52 0 0 1-55 47c-9 0-18-1-27-1l-19 0a433 433 0 0 1-50 86l11 20c3 5 7 10 10 15a52 52 0 0 1-10 75l-55 46a52 52 0 0 1-73 0c-6-6-13-12-20-18l-14-11a418 418 0 0 1-94 34l-3 22a186 186 0 0 0-3 19 52 52 0 0 1-57 50h-71a52 52 0 0 1-55-46c-1-9-3-18-4-27l-4-18a424 424 0 0 1-93-34l-18 14a154 154 0 0 0-14 13 52 52 0 0 1-75 2l-54-45a52 52 0 0 1-13-72c5-7 10-15 14-22l9-16a425 425 0 0 1-50-86l-22 0a152 152 0 0 0-19 0 52 52 0 0 1-59-47l-13-70a52 52 0 0 1 36-63c9-3 17-5 26-9l17-6a434 434 0 0 1 17-98l-17-15a153 153 0 0 0-15-12 52 52 0 0 1-15-73l35-61a52 52 0 0 1 68-25c8 3 16 7 25 10l18 6a424 424 0 0 1 76-64l-3-22a150 150 0 0 0-4-19 52 52 0 0 1 36-67l66-24a52 52 0 0 1 68 25c5 8 9 16 13 23l10 16a412 412 0 0 1 99 0l12-19c3-6 6-11 9-17a52 52 0 0 1 70-28l66 24a52 52 0 0 1 37 64c-2 8-4 17-6 26l-3 18a420 420 0 0 1 76 64l21-7a141 141 0 0 0 17-7 52 52 0 0 1 72 23l36 61a52 52 0 0 1-13 71c-7 6-14 11-21 17l-14 12a425 425 0 0 1 18 98l21 8a182 182 0 0 0 18 6 52 52 0 0 1 40 64z m-506-266a213 213 0 1 0 213 214 213 213 0 0 0-213-214z" horiz-adv-x="1013" />

<glyph glyph-name="social-filled" unicode="&#xe827;" d="M500-148c-168 0-322 52-401 135a118 118 0 0 0-24 126 460 460 0 0 0 850 0 118 118 0 0 0-24-126c-79-83-233-135-401-135z m0 586a205 205 0 1 0 205 205 205 205 0 0 0-205-205z" horiz-adv-x="1000" />

<glyph glyph-name="social-outlined" unicode="&#xe828;" d="M500-148c-168 0-322 52-401 136a118 118 0 0 0-24 126 460 460 0 0 0 850 0 118 118 0 0 0-24-126c-79-84-233-136-401-136z m-307 219c57-57 176-94 307-94s250 37 307 94a335 335 0 0 1-614 0z m307 368a205 205 0 1 0 205 204 205 205 0 0 0-205-204z m0 284a80 80 0 1 1 80-80 80 80 0 0 1-80 80z" horiz-adv-x="1000" />

<glyph glyph-name="submission" unicode="&#xe829;" d="M211 160c13 32 9 68 7 102-1 43 7 81 40 110 30 27 64 65 105 76 22 6 46 3 70 8s47 15 61 0a38 38 0 0 0 1-44 115 115 0 0 0-75-51 124 124 0 0 1-31-11 69 69 0 0 1-29-62c2-43 25-81 43-119s31-83 13-122a148 148 0 0 0-58-58 13 13 0 0 0-9-3 13 13 0 0 0-7 5l-132 140a20 20 0 0 0-5 8 24 24 0 0 0 4 17c0 1 1 3 2 4z m60-283l45 42a31 31 0 0 1 2 44l-137 148a31 31 0 0 1-45 2l-45-42a31 31 0 0 1-2-44l137-148a31 31 0 0 1 45-2z m623 853v-608a102 102 0 0 0-101-101h-346a101 101 0 0 1 4 9c20 43 16 94-13 155l-11 21a212 212 0 0 0-28 82 33 33 0 0 0 9 28 65 65 0 0 0 16 4l6 2a154 154 0 0 1 100 70 76 76 0 0 1-7 90c-29 29-66 20-89 14l-9-3a152 152 0 0 0-27-2 216 216 0 0 1-45-6 160 160 0 0 1-44-20v265a102 102 0 0 0 101 101h383a102 102 0 0 0 101-101z m-80-58a39 39 0 0 1-39 38h-348a39 39 0 1 1 0-78h348a39 39 0 0 1 39 40z" horiz-adv-x="1000" />

<glyph glyph-name="sun" unicode="&#xe82a;" d="M498 111a243 243 0 1 0 243 243 243 243 0 0 0-243-243z m-29 722l-61-148a31 31 0 0 1 30-43h123a31 31 0 0 1 29 43l-63 148a31 31 0 0 1-58 0z m58-962l61 147a31 31 0 0 1-29 44h-121a31 31 0 0 1-29-44l60-147a31 31 0 0 1 58 0z m-510 452l148-62a31 31 0 0 1 43 29v123a31 31 0 0 1-43 28l-148-60a31 31 0 0 1 0-58z m962 58l-147 61a31 31 0 0 1-44-29v-124a31 31 0 0 1 44-28l147 61a31 31 0 0 1 0 59z m-161 331l-148-61a31 31 0 0 1-10-51l87-87a31 31 0 0 1 51 10l61 148a31 31 0 0 1-41 41z m-639-721l148 61a31 31 0 0 1 10 51l-87 87a31 31 0 0 1-51-10l-61-148a31 31 0 0 1 41-41z m-41 680l61-148a31 31 0 0 1 51-10l87 87a31 31 0 0 1-10 51l-148 61a31 31 0 0 1-41-41z m721-639l-61 148a31 31 0 0 1-51 10l-87-87a31 31 0 0 1 11-51l147-61a31 31 0 0 1 41 41z" horiz-adv-x="1000" />

<glyph glyph-name="upload" unicode="&#xe82b;" d="M232 574l203 224c1 2 2 3 3 4l4 3c2 2 4 3 6 5a78 78 0 0 0 41 15h0c2 0 3 0 5 0h13c1 0 3 0 4 0h0a78 78 0 0 0 42-15c2-2 3-3 5-5l4-3c1-1 2-2 4-4l203-224a66 66 0 0 0-14-101 89 89 0 0 0-114 12l-57 63v-361a78 78 0 0 0-78-78h-13a78 78 0 0 0-78 78v361l-57-63a89 89 0 0 0-114-12 66 66 0 0 0-12 101z m703-438h-6a66 66 0 0 1-61-44 127 127 0 0 0-119-83h-498a127 127 0 0 0-118 83 66 66 0 0 1-61 44h-6a65 65 0 0 1-63-85 262 262 0 0 1 248-177h498a262 262 0 0 1 248 178 65 65 0 0 1-63 85z" horiz-adv-x="1000" />

<glyph glyph-name="alert" unicode="&#xe82c;" d="M1093 58l-416 723a139 139 0 0 1-241 0l-417-723a139 139 0 0 1 120-208h834a139 139 0 0 1 120 208z m-431-27a98 98 0 0 0-97-98h-13a98 98 0 0 0-98 98v13a98 98 0 0 0 98 97h13a98 98 0 0 0 97-97z m0 286a98 98 0 0 0-97-98h-13a98 98 0 0 0-98 98v290a98 98 0 0 0 98 98h13a98 98 0 0 0 97-98z" horiz-adv-x="1112" />

<glyph glyph-name="counsel" unicode="&#xe82d;" d="M1051 850h-927a124 124 0 0 1-124-124v-567a124 124 0 0 1 124-124h711c-23-68-54-163-55-167s-6-16 5-18 10 4 18 5 122 106 204 180h45a124 124 0 0 1 123 124v567a124 124 0 0 1-124 124z m-763-489a92 92 0 1 0 91 91 92 92 0 0 0-91-91z m299 0a92 92 0 1 0 92 91 92 92 0 0 0-92-91z m300 0a92 92 0 1 0 92 91 92 92 0 0 0-92-91z" horiz-adv-x="1175" />

<glyph glyph-name="arrow-left" unicode="&#xe82e;" d="M44 255l444-375a124 124 0 0 1 204 94v751a124 124 0 0 1-204 95l-444-375a124 124 0 0 1 0-190z" horiz-adv-x="692" />

<glyph glyph-name="arrow-right" unicode="&#xe82f;" d="M649 445l-445 375a124 124 0 0 1-204-94v-751a124 124 0 0 1 204-95l445 375a124 124 0 0 1 0 190z" horiz-adv-x="692" />

<glyph glyph-name="unidentified" unicode="&#xe831;" d="M790 86a342 342 0 0 0 12-34c69 8 145 10 198-31v-37c-44 52-123 50-193 42 0-3 2-6 2-9 0-6 1-12 2-19a192 192 0 0 0 64-4c31-9 51-39 75-59 14-11-5-30-19-19-25 20-42 49-76 54a217 217 0 0 1-42 1 338 338 0 0 0-25-121h-29a316 316 0 0 1 26 119l-22-2c-17-1-17 26 0 27l21 2c0 9-2 18-3 27l-37-5c-17-3-17 24 0 27l31 4c-1 4-2 7-3 11s-3 11-5 16a242 242 0 0 1-27-16c-14-10-28 14-14 24a283 283 0 0 0 32 18c-19 40-42 78-47 123-7 52 1 104-8 156a431 431 0 0 0-85-96 151 151 0 0 0-47-23 170 170 0 0 0-1-56c-3-18-29-10-26 7a134 134 0 0 1 0 44 309 309 0 0 0-40-4 193 193 0 0 0 8-69c-2-17-29-17-27 0a175 175 0 0 1-9 69c-14 0-28 0-42 3a184 184 0 0 0 7-60c-1-18-28-18-27 0a158 158 0 0 1-10 65 114 114 0 0 0-43 21c-32 26-57 65-80 102a1919 1919 0 0 0-53-244 108 108 0 0 0 31-44c6-16-20-23-26-7a74 74 0 0 1-14 23c-2-8-4-15-6-22-1-3-2-6-3-9a311 311 0 0 0 44-21 14 14 0 0 0-14-23 275 275 0 0 1-37 18c-2-8-4-16-5-25 16-2 31-4 46-6s10-29-7-26c-14 2-28 4-43 6a461 461 0 0 1 8-154h-28a506 506 0 0 0-8 156c-43 2-86-5-120-36-13-12-32 7-19 19 41 38 91 46 142 44 2 7 3 14 4 20 1 4 3 8 3 12-44 13-95 16-125-16-11-13-31 7-19 19 37 41 98 39 151 23 5 14 9 28 13 41-53 31-145 25-196-1v31c59 25 146 26 205-6 8 25 15 50 21 75 15 63 24 127 34 192 2 12 19 11 25 3a1120 1120 0 0 1 81-111c33-36 79-35 124-35s87 4 121 34 59 69 86 104a14 14 0 0 0 24-3c24-70 0-145 21-215a675 675 0 0 1 37-89c70 30 161 41 221 2v-34c-50 48-142 36-210 7z m-200-70c-3-8-39-5-45-3a67 67 0 0 0-48 57c-3 13-19 12-25 3a373 373 0 0 0-34-45c-23-21-41-16-70-9-17 4-24-22-7-26a173 173 0 0 1 59-9 71 71 0 0 1 18-21 58 58 0 0 1 37-19c22 1 44 25 52 45a41 41 0 0 0 5-2c30-6 71-13 84 21 6 17-20 24-26 8z m-113-43c-10-2-26 11-32 22a169 169 0 0 1 34 40 82 82 0 0 1 24-34c-3-9-15-26-26-28z m-97 117a42 42 0 1 1-42-42 42 42 0 0 1 42 42z m247 55a42 42 0 1 1 42-41 42 42 0 0 1-42 41z" horiz-adv-x="1000" />

<glyph glyph-name="cart" unicode="&#xe832;" d="M997 558l-97-350a80 80 0 0 0-77-60h-489a80 80 0 0 0-78 61l-101 414h-89a66 66 0 0 0 0 132h129a80 80 0 0 0 78-61l102-413h409l69 247h-383a66 66 0 1 0 0 131h450a80 80 0 0 0 64-31 86 86 0 0 0 13-70z m-703-460a94 94 0 1 1 94-93 94 94 0 0 1-94 93z m511 0a94 94 0 1 1 93-93 94 94 0 0 1-93 93z" horiz-adv-x="1000" />

<glyph glyph-name="arrow-down" unicode="&#xe833;" d="M596 37l375 444a125 125 0 0 1-96 205h-750a125 125 0 0 1-96-205l375-444a127 127 0 0 1 192 0z" horiz-adv-x="1000" />

<glyph glyph-name="long-arrow" unicode="&#xe834;" d="M967 441l-319 382a76 76 0 0 1-106 10l-20-17a76 76 0 0 1-9-107l216-259h-629a101 101 0 0 1-100-100v-5a101 101 0 0 1 100-100h626l-212-254a76 76 0 0 1 9-107l21-17a76 76 0 0 1 106 10l317 384a139 139 0 0 1 0 180z" horiz-adv-x="1000" />

<glyph glyph-name="arrow-slim-up" unicode="&#xe835;" d="M983 125l-17-20a76 76 0 0 0-107-10l-326 271a50 50 0 0 1-64 0l-328-272a76 76 0 0 0-107 9l-17 20a76 76 0 0 0 10 107l382 318a139 139 0 0 0 180 0l383-318a73 73 0 0 0 11-105z" horiz-adv-x="1000" />

<glyph glyph-name="arrow-slim-down" unicode="&#xe836;" d="M17 534l17 21a76 76 0 0 0 107 9l326-272a50 50 0 0 1 64 0l328 272a76 76 0 0 0 107-9l17-21a76 76 0 0 0-10-106l-384-319a139 139 0 0 0-180 0l-382 319a76 76 0 0 0-10 106z" horiz-adv-x="1000" />
</font>
</defs>
</svg>
